<!DOCTYPE svg PUBLIC "-//W3C//DTD SVG 20010904//EN" "http://www.w3.org/TR/2001/REC-SVG-20010904/DTD/svg10.dtd">
<svg version="1.0" xmlns="http://www.w3.org/2000/svg" width="44px" height="64px" viewBox="0 0 440 640" preserveAspectRatio="xMidYMid meet">
<g id="layer1" fill="#9f9ff7" stroke="none">
 <path d="M21 541 c-22 -14 -7 -36 34 -48 29 -9 43 -9 71 3 19 8 34 16 34 17 0 2 -29 1 -65 -1 -40 -3 -65 0 -65 6 0 15 45 23 92 16 32 -4 39 -3 28 5 -18 13 -109 14 -129 2z"/>
 <path d="M92 415 c0 -16 2 -22 5 -12 2 9 2 23 0 30 -3 6 -5 -1 -5 -18z"/>
 <path d="M138 375 c6 -11 22 -31 36 -44 14 -13 23 -28 19 -34 -4 -6 -1 -7 6 -2 9 5 3 17 -21 44 -18 20 -37 41 -42 46 -5 6 -4 1 2 -10z"/>
 <path d="M102 300 c0 -19 2 -27 5 -17 2 9 2 25 0 35 -3 9 -5 1 -5 -18z"/>
 <path d="M159 273 c-13 -16 -12 -17 4 -4 9 7 17 15 17 17 0 8 -8 3 -21 -13z"/>
 <path d="M320 283 c8 -3 24 -10 35 -15 20 -9 20 -9 1 6 -11 9 -27 16 -35 15 -14 0 -14 -1 -1 -6z"/>
 <path d="M184 248 l-19 -23 23 19 c21 18 27 26 19 26 -2 0 -12 -10 -23 -22z"/>
 <path d="M229 219 l-24 -20 30 17 c39 24 40 24 28 24 -6 0 -21 -9 -34 -21z"/>
 <path d="M110 216 c0 -9 5 -16 10 -16 6 0 10 4 10 9 0 6 -4 13 -10 16 -5 3 -10 -1 -10 -9z"/>
 <path d="M355 210 c10 -11 20 -20 23 -20 3 0 -3 9 -13 20 -10 11 -20 20 -23 20 -3 0 3 -9 13 -20z"/>
 <path d="M406 217 c3 -10 9 -15 12 -12 3 3 0 11 -7 18 -10 9 -11 8 -5 -6z"/>
 <path d="M155 209 c-4 -6 -5 -12 -2 -15 2 -3 7 2 10 11 7 17 1 20 -8 4z"/>
 <path d="M298 200 c19 -4 39 -13 45 -19 6 -6 18 -11 26 -11 9 0 -1 9 -22 20 -20 11 -47 20 -59 19 -16 -1 -13 -3 10 -9z"/>
 <path d="M239 183 c-13 -16 -12 -17 4 -4 16 13 21 21 13 21 -2 0 -10 -8 -17 -17z"/>
 <path d="M142 150 c0 -14 2 -19 5 -12 2 6 2 18 0 25 -3 6 -5 1 -5 -13z"/>
 <path d="M192 150 c0 -14 2 -19 5 -12 2 6 2 18 0 25 -3 6 -5 1 -5 -13z"/>
 <path d="M267 153 c24 -2 62 -2 86 0 23 2 4 4 -43 4 -47 0 -66 -2 -43 -4z"/>
 <path d="M318 123 c13 -3 19 -9 16 -15 -4 -7 -2 -8 5 -4 17 11 3 26 -22 25 -22 -2 -22 -2 1 -6z"/>
 <path d="M421 114 c0 -11 3 -14 6 -6 3 7 2 16 -1 19 -3 4 -6 -2 -5 -13z"/>
 <path d="M200 113 c0 -5 10 -18 23 -29 l22 -19 -20 25 c-11 14 -21 27 -22 29 -2 2 -3 0 -3 -6z"/>
 <path d="M252 104 c10 -10 20 -16 22 -13 3 3 -5 11 -17 18 -21 13 -21 12 -5 -5z"/>
 <path d="M347 85 c-15 -14 -24 -25 -19 -25 5 0 19 11 32 25 30 32 23 32 -13 0z"/>
 <path d="M394 59 c-3 -6 -20 -19 -38 -30 -17 -10 -25 -19 -19 -19 13 0 83 59 71 60 -4 0 -10 -5 -14 -11z"/>
 <path d="M273 3 c9 -2 23 -2 30 0 6 3 -1 5 -18 5 -16 0 -22 -2 -12 -5z"/>
 </g>
<g id="layer2" fill="#3535fc" stroke="none">
 <path d="M94 450 c3 -19 8 -77 12 -128 4 -51 10 -94 13 -97 4 -2 15 9 25 25 9 17 26 35 38 41 20 11 19 12 -11 43 -17 17 -42 58 -56 91 -21 50 -25 54 -21 25z"/>
 <path d="M230 272 c-100 -50 -106 -192 -9 -244 119 -64 245 53 190 177 -16 36 -29 50 -63 65 -53 24 -74 25 -118 2z m124 -53 c45 -35 27 -68 -18 -34 -28 21 -70 19 -91 -5 -18 -20 -17 -20 63 -20 74 0 82 -2 82 -19 0 -11 -12 -33 -26 -50 -21 -26 -33 -31 -69 -31 -78 0 -124 64 -91 129 9 16 24 35 33 40 30 18 88 13 117 -10z"/>
 <path d="M264 105 c20 -15 51 -12 71 6 5 5 -11 9 -40 9 -46 -1 -49 -2 -31 -15z"/>
 </g>

</svg>